<svg xmlns="http://www.w3.org/2000/svg" width="273" height="59" fill="none" viewBox="0 0 273 59">
  <mask id="a" fill="#fff">
    <path fill-rule="evenodd" d="M0 29.273h112.544c16.166 0 29.272-13.106 29.272-29.273 0 16.167 13.106 29.273 29.273 29.273h101.635-101.635c-16.167 0-29.273 13.106-29.273 29.272 0-16.166-13.106-29.272-29.272-29.272H0Z" clip-rule="evenodd"/>
  </mask>
  <path fill="#E09370" fill-rule="evenodd" d="M0 29.273h112.544c16.166 0 29.272-13.106 29.272-29.273 0 16.167 13.106 29.273 29.273 29.273h101.635-101.635c-16.167 0-29.273 13.106-29.273 29.272 0-16.166-13.106-29.272-29.272-29.272H0Z" clip-rule="evenodd"/>
  <path fill="#E09370" d="M0 29.273v-2.661h-2.661v2.66H0Zm0 0h-2.661v2.66H0v-2.66Zm171.089 0v-2.661 2.66Zm-173.75 0H2.66h-5.32Zm115.205-2.661H0v5.322h112.544v-5.322ZM139.155 0c0 14.697-11.914 26.612-26.611 26.612v5.322c17.636 0 31.934-14.297 31.934-31.934h-5.323Zm31.934 26.612c-14.697 0-26.611-11.915-26.611-26.612h-5.323c0 17.637 14.297 31.934 31.934 31.934v-5.322Zm101.635 0H171.089v5.322h101.635v-5.322Zm-101.635 5.322h101.635v-5.322H171.089v5.322Zm-26.611 26.611c0-14.697 11.914-26.611 26.611-26.611v-5.322c-17.637 0-31.934 14.297-31.934 31.933h5.323Zm-31.934-26.611c14.697 0 26.611 11.914 26.611 26.611h5.323c0-17.636-14.298-31.933-31.934-31.933v5.322ZM0 31.934h112.544v-5.322H0v5.322Z" mask="url(#a)"/>
</svg>
